<svg width="24" height="29" viewBox="0 0 24 29" fill="none" xmlns="http://www.w3.org/2000/svg">
<path d="M9.33215 24.312C9.4394 25.4023 9.68179 26.1363 10.2296 26.684C11.2121 27.6666 12.7935 27.6666 15.9562 27.6666C19.119 27.6666 20.7004 27.6666 21.6829 26.684C22.6655 25.7015 22.6655 24.1201 22.6655 20.9573C22.6655 17.7946 22.6655 16.2132 21.6829 15.2307C21.1352 14.6829 20.4012 14.4405 19.3109 14.3333" stroke="black" stroke-width="1.47034"/>
<path d="M5.99963 17.6667C5.99963 14.524 5.99963 12.9526 6.97594 11.9763C7.95226 11 9.5236 11 12.6663 11C15.809 11 17.3804 11 18.3566 11.9763C19.333 12.9526 19.333 14.524 19.333 17.6667C19.333 20.8093 19.333 22.3808 18.3566 23.357C17.3804 24.3333 15.809 24.3333 12.6663 24.3333C9.5236 24.3333 7.95226 24.3333 6.97594 23.357C5.99963 22.3808 5.99963 20.8093 5.99963 17.6667Z" stroke="black" stroke-width="1.37231"/>
<path d="M5.99963 18.5988C6.51548 18.5332 7.037 18.5009 7.55939 18.5019C9.76934 18.4611 11.9252 19.0636 13.6422 20.202C15.2346 21.2579 16.3536 22.7109 16.833 24.3334" stroke="black" stroke-width="1.47034" stroke-linejoin="round"/>
<path d="M15.1663 15.1667H15.1773" stroke="black" stroke-width="1.96045" stroke-linecap="round" stroke-linejoin="round"/>
</svg>
