<svg width="75" height="75" viewBox="0 0 75 75" fill="none" xmlns="http://www.w3.org/2000/svg">
<path d="M37.5 25V50M37.5 25C35.3119 25 31.2235 31.2322 29.6875 32.8125M37.5 25C39.6881 25 43.7766 31.2322 45.3125 32.8125" stroke="#141B34" stroke-width="4" stroke-linecap="round" stroke-linejoin="round"/>
<path d="M7.8125 37.5C7.8125 23.5052 7.8125 16.5078 12.1601 12.1601C16.5078 7.8125 23.5052 7.8125 37.5 7.8125C51.4947 7.8125 58.4922 7.8125 62.84 12.1601C67.1875 16.5078 67.1875 23.5052 67.1875 37.5C67.1875 51.4947 67.1875 58.4922 62.84 62.84C58.4922 67.1875 51.4947 67.1875 37.5 67.1875C23.5052 67.1875 16.5078 67.1875 12.1601 62.84C7.8125 58.4922 7.8125 51.4947 7.8125 37.5Z" stroke="#141B34" stroke-width="4"/>
</svg>
